<svg id="Layer_1" xmlns="http://www.w3.org/2000/svg" viewBox="0 0 100 101"><style>.st0{fill:#ffe197}.st1{fill:#5879da}.st2{fill:#777}.st3{fill:none}.st4{fill:#fff}.st5{fill:none;stroke:#7092ef;stroke-miterlimit:10}.st6{fill:#7092ef}.st7{fill:none;stroke:#d6d6d5;stroke-miterlimit:10}.st8{fill:#cfdbfa}.st9{fill:#d6d6d5}.st10,.st11{fill:none;stroke:#5879da;stroke-width:2;stroke-miterlimit:10}.st11{stroke:#000}</style><title>icon1@1x</title><path class="st0" d="M42.8 14H6.9C3.1 14 0 17.1 0 20.9v57.4c0 3.8 3.1 6.9 6.9 6.9h35.9c1.8 0 3.6-.7 4.9-2l33.5-33.6L47.7 16c-1.3-1.3-3.1-2-4.9-2z"/><path d="M64 13.5h28.9c2.2 0 4 1.8 4 4v64c0 2.2-1.8 4-4 4H64c-2.2 0-4-1.8-4-4v-64c0-2.2 1.8-4 4-4z"/><path class="st1" d="M67.1 13.5H96c2.2 0 4 1.8 4 4v64c0 2.2-1.8 4-4 4H67.1c-2.2 0-4-1.8-4-4v-64c0-2.2 1.8-4 4-4z"/><path class="st1" d="M96.6 13.5H82.3v72h14.2c1.9 0 3.4-1.5 3.4-3.4V17c.1-1.9-1.4-3.5-3.3-3.5z"/><path class="st2" d="M67.3 24.4h27.9v50.3H67.3z"/><path class="st3" d="M67.3 24.4h27.9v50.3H67.3z"/><path d="M66.3 34.7v29.8l14.9-14.9z"/><path class="st4" d="M81.2 44.6h9.9v9.9h-9.9z"/><path d="M16.4 27.1c-3 0-5.4 2.4-5.4 5.4h10.7c.1-3-2.3-5.4-5.3-5.4z"/><path class="st4" d="M39.7 27.1H16.4c3 0 5.4 2.4 5.4 5.4h23.3c0-3-2.4-5.4-5.4-5.4zM27.1 75.3h23.3c-3 0-5.4-2.4-5.3-5.4H21.8c0 3 2.4 5.4 5.3 5.4z"/><path class="st4" d="M21.8 62.9h23.3V70H21.8zm0-30.5h23.3v30.5H21.8z"/><path class="st5" d="M24.5 37.7h11.6m3.2 0h3.2m-18 3.7h6.3m8.5 0h3.2m-18 3.8h11.6m3.2 0h3.2m-18 3.7h9.9m4.9 0h3.2m-18 3.8h5.8m9 0h3.2m-3.2 9h3.2"/><path class="st6" d="M11.1 32.4h10.7v37.5H11.1z"/><path class="st5" d="M24.5 61.7h5.8"/><path class="st7" d="M24.5 57.4h18"/><path d="M77.8 78H81c.5 0 .8.4.8.8V82c0 .5-.4.8-.8.8h-3.2c-.5 0-.8-.4-.8-.8v-3.2c-.1-.5.3-.8.8-.8zm-1.2-58.6c0 .3.3.6.6.6h4.2c.3 0 .6-.3.6-.6s-.3-.6-.6-.6h-4.2c-.3-.1-.6.2-.6.6z"/><path class="st8" d="M42.8 14H6.9C3.1 14 0 17.1 0 20.9v57.4c0 3.8 3.1 6.9 6.9 6.9h35.9c1.8 0 3.6-.7 4.9-2l33.5-33.6L47.7 16c-1.3-1.3-3.1-2-4.9-2z"/><path d="M64 13.5h28.9c2.2 0 4 1.8 4 4v64c0 2.2-1.8 4-4 4H64c-2.2 0-4-1.8-4-4v-64c0-2.2 1.8-4 4-4z"/><path class="st6" d="M67.1 13.5H96c2.2 0 4 1.8 4 4v64c0 2.2-1.8 4-4 4H67.1c-2.2 0-4-1.8-4-4v-64c0-2.2 1.8-4 4-4z"/><path class="st1" d="M96.6 13.5H82.3v72h14.2c1.9 0 3.4-1.5 3.4-3.4V17c.1-1.9-1.4-3.5-3.3-3.5z"/><path class="st3" d="M67.3 24.4h27.9v50.3H67.3z"/><path class="st9" d="M67.3 24.4v11.3l13.9 13.9-13.9 13.9v11.2h27.9V24.4z"/><path d="M67.3 35.7v27.8l13.9-13.9z"/><path class="st4" d="M81.2 44.6h9.9v9.9h-9.9z"/><path d="M16.4 27.1c-3 0-5.4 2.4-5.4 5.4h10.7c.1-3-2.3-5.4-5.3-5.4z"/><path class="st4" d="M39.7 27.1H16.4c3 0 5.4 2.4 5.4 5.4h23.3c0-3-2.4-5.4-5.4-5.4zM27.1 75.3h23.3c-3 0-5.4-2.4-5.3-5.4H21.8c0 3 2.4 5.4 5.3 5.4z"/><path class="st4" d="M21.8 62.9h23.3V70H21.8zm0-30.5h23.3v30.5H21.8z"/><path class="st10" d="M24.5 37.7h11.6m3.2 0h3.2m-18 3.7h6.3m8.5 0h3.2m-18 3.8h11.6m3.2 0h3.2m-18 3.7h9.9m4.9 0h3.2m-18 3.8h5.8m9 0h3.2m-3.2 9h3.2"/><path class="st6" d="M11.1 32.4h10.7v37.5H11.1z"/><path class="st10" d="M24.5 61.7h5.8"/><path class="st11" d="M24.5 57.4h18"/><path d="M80.8 78H84c.5 0 .8.4.8.8V82c0 .5-.4.8-.8.8h-3.2c-.5 0-.8-.4-.8-.8v-3.2c-.1-.5.3-.8.8-.8zm-1.2-58.6c0 .3.3.6.6.6h4.2c.3 0 .6-.3.6-.6s-.3-.6-.6-.6h-4.2c-.3-.1-.6.2-.6.6z"/></svg>